<?xml version="1.0" encoding="utf-8"?>
<svg viewBox="61.8 24.7 350 350" width="512px" height="512px" xmlns="http://www.w3.org/2000/svg">
  <rect x="55.317" y="21.244" width="358.754" height="358.754" style="stroke: rgb(0, 0, 0);"/>
  <path stroke-width="0" d="M 37.401 64.283 C 40.409 63.685 44.037 63.856 48.142 64.82 C 53.376 66.05 58.906 70.881 66.402 72.339 C 70.707 73.177 76.039 73.181 81.627 73.022 C 80.933 71.722 80.456 70.41 80.097 68.848 C 79.372 65.696 79.129 61.855 80.097 58.107 C 81.217 53.767 84.362 48.242 87.347 44.412 C 90.156 40.808 94.73 38.748 97.282 35.551 C 99.621 32.622 100.244 28.274 102.385 26.152 C 104.212 24.341 106.164 23.333 108.829 22.93 C 112.146 22.428 115.936 24.336 121.182 24.541 C 128.484 24.827 140.519 22.879 149.646 23.467 C 158.391 24.03 166.434 25.11 174.887 27.763 C 183.883 30.587 197.75 36.48 202.009 40.384 C 204.354 42.535 203.092 44.61 204.694 46.56 C 206.666 48.962 212.475 52.154 213.824 53.274 C 214.362 53.72 214.208 53.547 214.629 54.079 C 215.636 55.35 219.217 59.186 220.269 62.404 C 221.391 65.837 221.913 70.503 220.806 74.219 C 219.639 78.135 216.4 82.112 213.018 85.229 C 209.428 88.537 203.873 91.485 199.592 93.284 C 196.733 94.486 194.548 94.953 191.684 95.467 C 192.76 96.221 193.69 97.029 194.49 97.849 C 196.327 99.732 197.178 102.041 197.712 104.294 C 198.239 106.519 198.406 108.902 197.712 111.276 C 196.919 113.99 195.511 117.487 192.61 119.6 C 188.96 122.259 181.637 123.538 175.961 124.434 C 170.27 125.332 161.183 122.962 158.507 124.971 C 156.672 126.348 158.423 129.398 157.433 131.684 C 156.26 134.391 153.934 137.914 151.257 140.008 C 148.508 142.158 145.508 143.478 141.053 144.305 C 134.965 145.435 123.661 145.036 116.885 144.305 C 111.388 143.712 107.008 142.636 102.922 141.082 C 99.238 139.682 96.243 136.408 93.255 135.712 C 90.765 135.132 88.733 136.867 86.273 136.249 C 83.33 135.51 78.986 133.018 76.874 130.61 C 74.973 128.442 75.942 125.256 73.652 122.823 C 70.498 119.472 61.833 114.7 57.272 113.693 C 53.923 112.953 51.537 115.394 48.679 114.767 C 45.538 114.077 41.293 111.8 39.28 109.128 C 37.298 106.495 38.382 102.268 36.595 98.924 C 34.546 95.089 28.671 91.692 26.928 87.645 C 25.335 83.947 25.071 79.281 25.854 75.83 C 26.578 72.638 28.871 69.452 30.956 67.506 C 32.803 65.782 34.837 64.793 37.401 64.283 Z M 235.038 138.397 C 237.833 137.758 241.15 137.84 244.705 138.397 C 248.897 139.054 253.904 140.625 258.668 142.694 C 263.906 144.968 268.324 150.189 274.78 151.824 C 282.27 153.72 295.273 152.157 301.633 151.824 C 305.775 151.607 307.933 150.348 310.763 150.749 C 313.463 151.132 314.223 153.504 318.281 153.972 C 325.892 154.85 349.646 148.779 357.487 150.212 C 361.974 151.033 363.998 153.659 365.811 155.314 C 367.11 156.501 366.785 157.66 368.228 158.805 C 370.423 160.549 376.863 161.685 379.237 163.907 C 381.165 165.712 381.795 167.13 382.46 170.352 C 383.473 175.264 383.854 187.284 382.702 193.412 C 385.003 199.346 387.075 206.164 388.367 210.631 C 390.071 216.519 390.606 220.641 391.053 225.669 C 391.496 230.666 391.288 237.848 391.053 240.707 C 390.934 242.153 390.589 242.083 390.516 243.392 C 390.391 245.608 391.14 251.115 391.053 253.596 C 390.994 255.266 390.111 255.959 390.516 257.355 C 391.062 259.242 394.434 261.244 395.349 263.8 C 396.334 266.551 396.643 270.473 395.886 273.467 C 395.127 276.471 392.935 279.851 390.784 281.791 C 388.829 283.555 387.551 284.319 383.802 285.014 C 376.936 286.286 361.004 285.992 348.894 285.014 C 336.005 283.973 317.658 280.807 308.614 278.569 C 302.967 277.172 300.233 276.198 296.799 274.273 C 293.581 272.468 290.518 270.071 288.475 267.559 C 286.619 265.279 285.352 262.762 284.715 260.041 C 284.153 257.638 283.922 254.812 284.403 252.219 C 281.685 252.622 279.18 252.699 276.928 252.253 C 272.342 251.345 269.53 248.348 265.918 245.003 C 261.63 241.031 256.769 231.309 253.298 229.16 C 251.252 227.894 249.803 229.349 247.927 228.623 C 245.638 227.737 242.212 224.938 240.677 223.521 C 239.673 222.594 239.555 221.877 238.797 221.104 C 237.969 220.26 236.849 219.982 235.843 218.687 C 234.367 216.787 234.156 213.515 231.278 209.826 C 226.505 203.705 211.264 191.871 205.768 185.39 C 202.105 181.07 200.108 178.36 198.786 174.649 C 197.552 171.183 196.985 167.135 197.712 163.907 C 198.411 160.807 200.729 157.529 202.814 155.583 C 204.661 153.859 206.482 153.147 209.259 152.361 C 212.914 151.325 220.243 152.835 223.491 150.749 C 226.355 148.91 226.466 143.698 228.593 141.62 C 230.425 139.829 232.552 138.966 235.038 138.397 Z M 86.273 231.308 C 88.96 230.774 92.486 230.738 95.403 231.845 C 98.598 233.058 99.288 237.333 104.533 238.827 C 113.932 241.504 142.945 238.091 153.942 238.827 C 160.607 239.273 163.51 239.949 167.905 240.975 C 172.077 241.949 176.59 243.062 179.721 244.734 C 182.349 246.139 184.317 247.86 185.897 249.837 C 187.411 251.731 188.578 253.976 189.119 256.281 C 189.67 258.626 189.83 261.112 189.119 263.8 C 188.265 267.029 185.88 271.986 183.48 274.273 C 181.439 276.218 176.95 276.346 176.23 277.495 C 175.798 278.184 176.377 279.148 176.767 279.643 C 177.126 280.099 177.518 279.646 178.378 280.449 C 180.866 282.773 190.239 293.981 193.953 300.857 C 197.305 307.063 199.435 314.17 200.397 319.654 C 201.179 324.108 201.35 328.021 200.397 331.469 C 199.515 334.664 197.446 337.853 195.295 339.794 C 193.34 341.557 190.63 342.498 188.314 343.016 C 186.156 343.499 184.038 343.189 181.869 343.016 C 179.653 342.839 176.875 341.245 175.156 341.942 C 173.525 342.603 173.651 345.514 171.665 346.775 C 168.929 348.513 162.598 350.535 158.776 349.998 C 155.236 349.5 152.673 347.624 149.377 344.359 C 147.656 342.654 145.685 339.744 143.687 336.525 C 141.257 336.713 138.568 336.74 135.682 336.571 C 128.169 336.131 115.45 333.774 108.292 331.738 C 102.859 330.192 98.899 326.093 95.403 326.367 C 92.538 326.592 90.957 330.311 88.421 331.201 C 85.936 332.073 83.129 332.463 80.365 331.738 C 77.159 330.896 73.755 330.174 70.43 325.562 C 69.005 323.585 67.347 320.237 65.614 316.137 C 64.027 315.005 62.542 313.82 61.3 312.672 C 58.291 309.892 56.162 307.104 54.318 303.542 C 52.317 299.677 50.658 293.971 50.021 290.116 C 49.513 287.034 49.543 285.583 50.021 282.06 C 50.321 279.851 50.923 276.58 51.683 273.167 C 51.666 273.086 51.649 273.007 51.633 272.93 C 50.763 268.765 50.907 267.914 51.633 265.411 C 52.439 262.632 54.649 259.033 56.735 257.087 C 57.474 256.397 58.232 255.806 59.045 255.32 C 59.504 254.849 59.985 254.377 60.494 253.864 C 62.577 251.763 65.05 250.791 67.744 248.225 C 71.291 244.848 76.34 237.316 79.828 234.53 C 82.233 232.611 83.83 231.793 86.273 231.308 Z M 428.647 76.367 C 434.841 82.611 441.872 91.152 444.221 97.312 C 445.964 101.881 445.83 105.814 444.758 109.665 C 443.658 113.615 440.645 117.935 437.508 120.674 C 434.438 123.356 430.78 125.067 426.23 126.045 C 420.752 127.222 413.687 126.826 406.359 126.045 C 397.826 125.135 384.044 119.603 377.895 120.137 C 374.151 120.463 373.234 123.239 370.376 123.897 C 367.224 124.622 364.3 124.528 359.635 123.897 C 352.714 122.96 339.152 117.763 331.708 116.915 C 326.219 116.29 321.99 117.98 318.281 117.452 C 315.27 117.023 313.278 116.273 310.763 114.767 C 307.822 113.006 305.111 110.776 301.901 106.979 C 297.394 101.649 289.472 91.001 286.864 83.886 C 284.755 78.134 284.285 72.375 285.252 67.774 C 286.042 64.018 288.115 60.822 290.7 58.058 C 290.156 56.966 289.842 55.784 289.549 54.348 C 288.929 51.312 289.084 47.053 289.549 43.07 C 290.06 38.686 290.752 34.319 292.771 29.106 C 295.308 22.557 301.123 10.725 304.855 6.818 C 307.111 4.456 308.995 4.138 311.3 3.596 C 313.644 3.045 315.405 3.116 318.818 3.596 C 324.234 4.357 335.934 6.816 341.912 9.504 C 346.672 11.644 349.544 14.281 352.922 17.291 C 356.357 20.353 357.118 23.792 362.32 27.763 C 370.832 34.263 398.436 45.514 404.479 51.125 C 407.304 53.749 407.168 55.317 407.701 57.57 C 407.934 58.556 408.097 59.573 408.146 60.606 C 414.825 64.954 422.809 70.483 428.647 76.367 Z M 289.28 331.738 C 296.149 330.971 307.563 330.451 317.207 331.738 C 327.561 333.119 342.699 337.486 349.431 340.331 C 353.471 342.038 355.457 343.46 357.218 345.433 C 358.719 347.114 358.468 350.055 359.903 351.072 C 361.284 352.049 363.636 350.901 365.542 351.609 C 367.744 352.426 370.587 354.278 372.256 356.174 C 372.601 356.566 372.922 356.984 373.22 357.423 C 373.933 357.467 374.602 357.509 375.209 357.544 C 378.655 357.745 381.316 358.946 383.802 358.618 C 385.969 358.333 388.161 357.154 389.441 356.201 C 390.411 355.48 390.321 354.572 391.321 353.785 C 392.729 352.675 395.202 351.142 397.766 350.562 C 400.774 349.882 404.353 351.072 408.507 350.562 C 413.698 349.926 422.252 346.842 426.767 346.266 C 429.807 345.878 431.414 345.614 433.749 346.266 C 436.336 346.988 439.655 349.091 441.536 350.831 C 443.113 352.289 444.109 353.668 444.758 355.664 C 445.519 358.001 445.969 361.444 445.295 364.257 C 444.573 367.27 441.149 371.795 440.193 373.119 C 439.796 373.669 439.503 373.3 439.388 373.924 C 439.093 375.524 442.206 382.223 441.536 385.739 C 440.901 389.072 438.529 392.338 435.897 394.601 C 433.141 396.97 429.467 398.419 425.156 399.434 C 419.954 400.659 413.579 400.71 406.359 400.509 C 397.569 400.263 382.659 399.424 375.747 397.286 C 371.173 395.872 367.884 393.235 366.348 391.647 C 365.478 390.748 366.146 389.856 365.274 389.23 C 363.919 388.259 359.944 388.69 357.487 387.619 C 356.523 387.199 355.496 386.655 354.501 386.034 C 351.688 386.9 348.838 387.617 346.208 388.129 C 338.298 389.67 326.972 389.488 321.504 388.666 C 318.113 388.156 318.623 386.593 314.522 385.98 C 305.646 384.655 274.701 386.69 262.965 385.98 C 255.666 385.539 252.048 385.009 247.39 383.832 C 243.199 382.773 239.294 381.403 236.112 379.536 C 233.217 377.837 230.628 375.667 228.861 373.36 C 227.24 371.242 226.217 369.12 225.639 366.378 C 224.965 363.182 224.712 358.437 225.639 355.1 C 226.514 351.949 228.101 348.982 230.741 346.775 C 233.787 344.229 238.401 342.394 243.631 341.405 C 250.085 340.184 264.082 341.024 267.261 341.405 C 268.37 341.537 268.046 342.174 268.872 341.942 C 270.692 341.431 275.059 336.126 278.539 334.423 C 281.882 332.787 284.536 332.267 289.28 331.738 Z" style="stroke-width: 2px; fill: rgb(13, 68, 6);"/>
  <path stroke-width="0" d="M 172.202 85.229 C 202.775 84.166 322.132 83.157 342.449 87.377 C 348.924 88.722 348.78 90.37 350.773 92.479 C 352.574 94.383 351.923 97.031 354.264 99.192 C 357.255 101.953 364.62 104.122 370.041 106.9 C 371.587 107.178 372.984 107.478 374.135 107.785 C 378.452 108.937 380.453 111.637 383.802 112.618 C 384.625 112.859 385.49 112.978 386.372 113.037 C 387.249 112.628 388.294 112.319 389.71 112.081 C 395.321 111.137 409.111 112.587 416.563 113.693 C 422.54 114.58 427.781 115.794 431.6 117.452 C 434.549 118.732 436.645 120.121 438.314 122.017 C 439.905 123.825 441.002 126.208 441.536 128.462 C 442.063 130.687 442.23 133.07 441.536 135.443 C 440.743 138.158 438.585 141.827 436.434 143.768 C 434.479 145.531 432.194 146.412 429.452 146.99 C 426.256 147.664 421.728 147.561 418.174 146.99 C 414.762 146.442 412.555 144.612 408.507 143.768 C 404.919 143.019 399.139 143.066 394.268 142.672 C 391.73 143.305 388.916 143.62 386.488 143.768 C 385.978 143.799 385.457 143.816 384.927 143.821 C 384.739 143.984 384.544 144.145 384.339 144.305 C 379.663 147.954 369.201 151.459 360.709 153.435 C 351.73 155.524 336.069 156.511 331.708 156.12 C 329.977 155.965 330.476 154.961 329.023 155.046 C 326.095 155.217 317.9 160.087 313.448 160.954 C 309.948 161.635 307.412 161.591 304.318 160.954 C 300.976 160.265 298.223 157.643 294.114 156.657 C 289.087 155.451 284.128 154.693 275.854 155.046 C 263.029 155.593 239.839 161.757 221.611 163.102 C 203.32 164.451 178.852 164.336 166.294 163.102 C 158.449 162.331 155.091 161.761 149.646 159.342 C 143.703 156.703 137.055 152.282 132.191 147.259 C 127.28 142.187 123.112 134.513 120.376 128.999 C 118.143 124.5 116.726 120.293 116.079 116.646 C 115.547 113.642 115.151 111.457 116.079 108.591 C 117.236 105.022 121.204 99.755 123.867 97.044 C 125.973 94.9 127.406 94.073 130.311 92.747 C 134.274 90.939 140.204 89.133 146.423 87.914 C 153.817 86.465 157.803 85.729 172.202 85.229 Z M 214.092 195.325 C 221.622 194.056 235.83 194.9 243.093 195.862 C 248.238 196.544 250.323 197.387 254.909 199.085 C 260.816 201.272 269.633 204.753 275.854 208.752 C 281.839 212.598 288.35 217.981 291.697 222.447 C 294.291 225.907 295.282 229.137 295.994 232.651 C 296.697 236.122 296.426 240.202 295.994 243.392 C 295.613 246.201 295.277 248.365 293.845 250.911 C 292.115 253.987 288.126 257.774 285.521 260.309 C 283.344 262.427 281.12 263.065 279.345 265.411 C 277.249 268.181 276.956 273.321 274.243 276.421 C 271.309 279.772 266.815 281.916 261.89 284.477 C 256.045 287.516 248.394 291.188 240.945 293.07 C 233.214 295.023 223.218 297.265 216.241 295.755 C 210.063 294.418 207.358 287.88 200.666 286.088 C 192.28 283.842 176.505 288.177 168.443 286.088 C 162.345 284.508 158.352 281.582 154.748 277.763 C 154.216 277.2 153.698 276.596 153.197 275.96 C 153.088 275.936 152.978 275.911 152.868 275.884 C 150.423 275.29 148.95 273.338 145.349 272.124 C 139.756 270.239 128.36 270.086 120.644 266.754 C 112.763 263.35 105.307 254.047 98.625 251.716 C 93.387 249.889 87.92 252.397 84.125 251.179 C 82.636 250.701 81.296 249.968 80.121 249.116 C 79.439 249.983 78.63 250.834 77.68 251.716 C 73.932 255.197 65.211 259.891 60.494 261.383 C 57.108 262.454 54.756 262.639 51.901 261.92 C 48.757 261.129 45.357 259.188 42.503 256.281 C 39.053 252.769 35.008 246.108 33.373 241.244 C 31.951 237.014 31.315 232.744 32.299 228.891 C 33.306 224.943 37.065 220.137 39.549 217.882 C 41.391 216.209 44.518 216.758 45.188 215.196 C 45.92 213.488 44.837 209.752 43.04 207.678 C 40.864 205.166 34.054 204.308 31.762 202.038 C 30.004 200.298 29.53 198.243 29.076 196.131 C 28.609 193.956 28.382 191.523 29.076 189.149 C 29.87 186.435 32.093 182.771 34.178 180.825 C 36.025 179.101 37.568 178.247 40.623 177.602 C 45.206 176.635 53.884 176.031 60.494 177.602 C 65.148 178.709 71.064 181.174 75.742 183.856 C 77.554 182.251 79.808 181.338 81.976 180.825 C 84.201 180.298 86.315 180.159 88.958 180.825 C 92.37 181.684 96.927 185.589 100.773 186.732 C 104.25 187.765 107.689 187.823 110.977 187.806 C 114.124 187.791 117.229 186.093 120.107 186.732 C 123.056 187.387 126.34 189.745 128.432 191.834 C 130.347 193.747 130.885 196.634 132.46 198.548 C 133.952 200.361 135.94 201.279 137.562 203.113 C 139.36 205.146 140.696 208.45 142.664 210.363 C 144.492 212.14 147.299 212.393 148.84 214.391 C 150.558 216.619 150.253 220.682 152.062 223.521 C 153.091 225.135 154.681 226.453 156.329 227.833 C 158.772 224.731 161.056 222.041 161.998 221.104 C 162.725 220.381 162.784 220.985 163.34 220.298 C 164.632 218.704 166.638 211.209 168.98 208.752 C 170.837 206.802 173.226 206.054 175.424 205.529 C 177.527 205.027 179.646 206.17 181.869 205.529 C 184.453 204.784 186.895 201.523 189.925 200.696 C 193.122 199.823 196.901 201.443 200.666 200.696 C 204.907 199.854 208.392 196.286 214.092 195.325 Z M 391.321 263.531 C 395.737 262.81 404.748 263.88 410.118 265.143 C 414.712 266.223 418.463 267.75 421.933 269.976 C 425.337 272.159 428.336 275.129 430.795 278.301 C 433.262 281.482 435.56 284.648 436.702 289.042 C 438.073 294.315 438.737 302.493 437.24 308.376 C 435.783 314.099 429.076 318.988 428.11 323.95 C 427.274 328.239 431.347 332.191 430.258 336.303 C 428.999 341.054 424.643 346.084 419.248 350.535 C 412.378 356.202 399.341 363.266 390.247 366.109 C 382.49 368.534 375.149 368.509 368.228 368.258 C 361.778 368.023 354.947 367.133 349.968 365.035 C 345.641 363.212 341.672 359.848 339.495 357.248 C 337.849 355.281 337.298 353.705 336.81 351.34 C 336.225 348.507 335.862 344.408 336.81 341.136 C 337.811 337.68 339.656 333.943 342.986 331.201 C 347.071 327.837 358.567 327.355 360.977 323.682 C 362.899 320.754 359.162 315.956 359.903 312.672 C 360.609 309.548 364.062 306.877 365.005 304.348 C 365.766 302.309 364.856 301.126 365.811 298.709 C 367.347 294.819 373.736 285.183 375.746 282.865 C 376.617 281.862 377.155 282.334 377.626 281.523 C 378.317 280.334 377.782 277.746 378.7 275.615 C 379.862 272.92 382.565 268.794 384.876 266.754 C 386.842 265.019 388.316 264.023 391.321 263.531 Z M 152.331 317.237 C 157.559 316.159 167.65 316.23 176.498 317.237 C 186.719 318.4 200.396 322.247 210.333 324.756 C 218.833 326.902 226.659 328.348 232.889 331.201 C 238.217 333.64 243.351 336.658 246.047 340.062 C 248.283 342.885 246.395 346.851 249.27 349.461 C 253.442 353.248 267.792 354.892 273.169 357.516 C 276.708 359.244 278.653 360.588 280.419 362.618 C 282.044 364.487 283.108 366.81 283.641 369.063 C 284.168 371.288 284.335 373.671 283.641 376.045 C 282.848 378.759 280.938 382.277 278.539 384.369 C 276.062 386.529 274.807 387.647 268.872 388.666 C 255.361 390.985 202.712 391.07 186.165 389.203 C 177.204 388.192 173.696 386.622 168.98 384.369 C 164.916 382.429 161.862 380.024 159.044 377.119 C 156.221 374.208 153.405 370.672 152.062 366.915 C 150.718 363.154 150.736 357.821 150.988 354.563 C 151.178 352.105 153.352 350.501 152.599 348.655 C 151.642 346.307 145.443 344.524 143.469 342.21 C 141.882 340.348 141.245 338.463 140.784 336.303 C 140.295 334.011 140.058 331.287 140.784 328.784 C 141.59 326.005 143.801 322.406 145.886 320.459 C 147.733 318.736 149.109 317.902 152.331 317.237 Z M 55.661 1.448 C 58.236 0.937 61.315 0.917 64.253 1.985 C 67.73 3.247 67.72 7.716 74.995 9.504 C 87.859 12.665 136.208 9.574 166.759 9.147 C 167.846 8.912 168.823 8.672 169.674 8.429 C 176.294 6.536 177.999 3.459 182.026 2.522 C 185.681 1.672 189.542 1.621 192.767 2.522 C 195.872 3.388 199.145 5.539 201.092 7.624 C 202.815 9.47 203.574 11.015 204.314 14.069 C 205.425 18.652 205.949 28.872 205.388 33.94 C 204.98 37.629 204.43 39.519 202.703 42.533 C 200.53 46.324 195.508 52.071 192.23 54.616 C 189.785 56.516 187.565 57.321 185.249 57.839 C 183.091 58.321 180.316 58.005 178.804 57.839 C 177.817 57.73 178.058 57.181 176.656 57.302 C 172.729 57.639 157.409 61.472 148.729 65.357 C 140.148 69.198 128.384 75.189 124.83 80.395 C 122.387 83.974 124.896 88.518 123.756 91.405 C 122.792 93.843 121.526 95.62 119.191 97.044 C 116.215 98.858 110.29 100.944 106.301 100.266 C 103.336 99.762 99.747 97.144 97.311 94.976 C 96.401 94.934 95.427 94.756 94.329 94.359 C 92.856 93.826 90.913 92.722 88.831 91.346 C 87.285 92.172 85.655 93.017 84.282 93.284 C 81.257 93.873 78.64 94.287 75.152 93.284 C 70.487 91.944 63.459 87.792 58.772 83.886 C 54.182 80.062 51.051 74.258 47.225 70.191 C 43.715 66.46 39.057 63.388 36.752 60.255 C 34.961 57.82 34.048 55.59 33.53 53.274 C 33.047 51.116 33.006 49.052 33.53 46.829 C 34.12 44.328 35.331 41.043 37.289 39.042 C 39.234 37.055 42.706 35.53 45.304 34.826 C 45.259 34.708 45.221 34.592 45.188 34.477 C 44.484 31.994 45.027 28.765 45.188 26.958 C 45.295 25.751 45.72 25.612 45.725 24.273 C 45.733 21.903 43.442 16.337 44.114 12.994 C 44.746 9.852 47.131 6.616 49.216 4.67 C 51.063 2.946 53.262 1.923 55.661 1.448 Z" style="stroke-width: 2px; fill: rgb(26, 54, 22);"/>
  <path stroke-width="0" d="M 263.502 53.542 C 273.961 51.935 283.405 53.025 290.892 53.542 C 296.722 53.945 301.407 54.28 305.392 55.69 C 308.78 56.889 311.77 58.707 313.716 60.792 C 315.44 62.639 316.405 64.984 316.939 67.237 C 317.466 69.462 317.212 72.403 316.939 74.219 C 316.734 75.58 315.717 76.136 315.865 77.441 C 316.068 79.24 317.586 82.312 319.356 84.154 C 321.254 86.131 325.289 86.764 327.143 88.719 C 328.837 90.506 329.832 92.911 330.365 95.164 C 330.892 97.389 331.059 99.772 330.365 102.146 C 329.572 104.86 327.414 108.53 325.263 110.47 C 323.308 112.234 321.721 113.03 318.281 113.693 C 312.747 114.758 296.175 112.763 293.04 113.693 C 291.926 114.023 292.308 114.347 291.697 115.035 C 290.653 116.212 289.025 119.205 287.132 120.674 C 285.194 122.178 282.579 123.362 280.15 123.897 C 277.744 124.427 275.181 124.514 272.632 123.897 C 269.82 123.216 267.864 120.055 264.039 119.6 C 258.729 118.969 251.312 122.65 242.556 123.36 C 231.13 124.285 209.636 124.603 200.129 123.36 C 194.222 122.587 191.373 121.51 187.777 119.6 C 184.349 117.78 180.85 114.797 178.915 112.35 C 177.373 110.4 176.731 108.909 176.23 106.442 C 175.593 103.307 175.013 98.448 176.23 94.627 C 177.557 90.46 179.742 86.387 184.554 82.543 C 191.539 76.964 205.959 71.628 218.389 66.969 C 232.038 61.852 250.514 55.539 263.502 53.542 Z M 147.497 157.194 C 158.148 155.431 179.469 156.803 189.925 158.805 C 197.318 160.221 202.596 162.989 206.574 165.25 C 209.46 166.891 211.114 168.197 212.75 170.352 C 214.473 172.623 213.706 176.283 216.509 178.676 C 220.614 182.18 232.877 183.551 238.797 186.732 C 243.668 189.35 247.663 192.408 250.344 195.594 C 252.614 198.292 253.888 200.914 254.64 204.187 C 255.472 207.805 255.891 212.594 254.64 216.539 C 253.301 220.765 250.271 225.162 246.316 228.623 C 241.781 232.591 234.02 235.934 228.056 238.29 C 222.582 240.452 218.859 241.755 211.944 242.586 C 202.372 243.737 182.888 243.121 174.35 242.586 C 169.054 242.255 166.608 241.988 163.072 240.975 C 159.639 239.992 156.661 238.829 153.405 236.679 C 149.602 234.167 145.275 230.343 141.858 226.206 C 138.242 221.828 135.115 214.163 132.46 210.9 C 130.737 208.783 129.454 208.789 127.895 206.872 C 125.814 204.314 122.681 200.513 121.45 196.131 C 120.002 190.975 119.337 182.71 120.913 177.334 C 122.369 172.368 125.649 168.006 129.774 164.713 C 134.283 161.115 139.735 158.479 147.497 157.194 Z M 256.52 247.957 C 263.208 246.901 281.089 247.101 291.429 248.494 C 300.477 249.713 306.46 251.734 315.596 254.939 C 326.847 258.885 343.575 265.191 354.264 271.587 C 363.523 277.128 373.127 285.472 377.089 290.116 C 379.347 292.762 379.721 293.924 380.311 296.56 C 381.031 299.774 380.752 304.893 380.311 308.376 C 379.929 311.405 379.859 313.22 378.163 316.432 C 375.621 321.246 370.5 329.218 363.931 334.423 C 356.233 340.523 344.181 346.766 333.319 349.461 C 322.353 352.181 308.525 351.729 298.41 350.535 C 289.784 349.516 282.123 347.194 275.854 344.09 C 270.312 341.346 265.001 337.079 262.159 333.617 C 260.014 331.005 260.993 328.474 258.668 325.83 C 255.368 322.078 245.881 318.124 241.751 314.283 C 238.473 311.235 236.234 308.998 234.769 305.153 C 233.067 300.686 233.03 293.192 233.158 288.505 C 233.261 284.72 233.3 282.108 234.769 278.838 C 236.507 274.967 242.407 270.831 243.899 267.022 C 245.126 263.892 243.409 260.621 244.436 257.892 C 245.465 255.159 247.922 252.311 250.075 250.642 C 252.004 249.147 253.006 248.511 256.52 247.957 Z M 93.792 311.867 C 99.404 311.053 113.287 313.149 120.644 314.552 C 126.481 315.665 130.071 316.944 135.145 318.848 C 140.758 320.955 147.102 323.627 152.868 326.904 C 158.837 330.297 165.946 334.645 170.322 338.988 C 174.059 342.696 176.996 346.763 178.378 350.803 C 179.636 354.479 180.239 358.123 178.915 362.081 C 177.254 367.049 172.482 373.647 166.831 377.925 C 160.364 382.82 149.435 386.952 141.053 388.666 C 133.356 390.239 124.717 389.295 118.496 388.666 C 117.181 388.533 116 388.391 114.893 388.225 C 114.035 390.889 112.112 394.255 109.903 396.185 C 107.63 398.17 104.227 399.328 101.31 399.944 C 98.495 400.538 95.754 400.657 92.718 399.944 C 89.191 399.116 85.969 396.022 81.439 394.573 C 75.947 392.817 67.237 393.202 61.568 390.814 C 56.384 388.63 51.828 385.548 48.41 381.415 C 44.86 377.123 42.248 371.693 40.892 365.304 C 39.292 357.769 41.758 345.901 40.892 338.451 C 40.196 332.471 37.786 328.85 37.132 323.413 C 36.417 317.474 35.863 308.935 37.132 304.079 C 38.098 300.385 40.149 297.701 42.234 295.755 C 44.081 294.031 46.426 293.066 48.679 292.533 C 50.904 292.006 53.287 291.839 55.661 292.533 C 58.375 293.326 61.323 294.751 63.985 297.635 C 67.595 301.545 69.636 309.147 74.189 315.895 C 75.945 318.497 78.244 321.653 80.74 324.938 C 80.816 324.181 80.952 323.486 81.171 322.876 C 82.45 319.31 85.084 316.953 87.347 315.089 C 89.337 313.449 90.482 312.346 93.792 311.867 Z M 400.451 131.953 C 404.438 131.424 406.706 131.136 409.581 131.953 C 412.534 132.791 416.059 135.056 417.905 137.055 C 419.45 138.726 418.885 141.677 420.591 142.694 C 422.599 143.891 427.055 141.863 429.989 142.694 C 432.969 143.538 436.367 145.71 438.314 147.796 C 440.037 149.642 440.967 151.755 441.536 154.24 C 442.175 157.036 442.504 160.328 441.536 163.907 C 440.311 168.438 436.137 175.86 433.212 179.214 C 431.056 181.684 428.972 181.366 426.498 183.778 C 423.123 187.069 418.739 194.639 414.972 198.997 C 416.724 199.908 418.413 201.113 419.517 202.575 C 421.564 205.288 420.536 210.73 422.739 213.585 C 424.976 216.485 430.797 216.826 432.943 219.761 C 435.065 222.664 435.985 227.593 435.628 231.04 C 435.295 234.268 433.264 237.717 431.332 239.901 C 429.59 241.87 426.41 242.085 424.887 243.929 C 423.374 245.761 422.05 248.61 422.202 250.911 C 422.358 253.266 425.303 255.21 425.961 257.892 C 426.689 260.859 426.885 264.934 425.961 268.096 C 425.027 271.295 422.604 274.927 420.322 276.958 C 418.308 278.751 416.003 279.613 413.341 280.18 C 410.359 280.816 406.719 281.428 403.136 280.18 C 398.674 278.626 392.471 273.916 388.904 269.708 C 385.511 265.703 383.243 261.248 381.923 255.744 C 381.679 254.726 381.449 253.666 381.244 252.57 C 379.41 250.929 377.819 249.143 376.015 246.614 C 372.311 241.422 368.531 233.888 365.274 225.669 C 364.674 224.154 364.048 222.463 363.414 220.659 C 361.204 219.49 359.023 217.915 357.755 216.539 C 356.123 214.769 355.562 213.031 355.07 210.631 C 354.467 207.695 354.448 203.373 355.07 199.89 C 355.254 198.86 355.728 197.798 356.284 196.741 C 355.77 194.654 355.354 192.798 355.07 191.297 C 354.627 188.962 354.298 187.266 354.185 185.762 C 352.453 184.815 350.68 183.874 349.699 182.704 C 347.775 180.41 346.591 178 345.94 175.186 C 345.237 172.144 344.729 168.654 345.94 164.982 C 347.478 160.317 351.691 154.062 356.412 149.675 C 361.569 144.884 369.069 140.8 376.284 137.86 C 383.713 134.832 394.498 132.742 400.451 131.953 Z" style="stroke-width: 2px; fill: rgb(59, 43, 29);"/>
  <text style="fill: rgb(84, 80, 33); font-family: C059; font-size: 140px; font-weight: 700; text-anchor: middle; white-space: pre;" transform="matrix(1, 0, 0, 1, 62.835239, 33.920246)"><tspan x="165.951" y="129.431">BF</tspan><tspan x="165.951" dy="1em">​</tspan><tspan>1942</tspan></text>
  <text style="fill: rgb(255, 235, 0); font-family: C059; font-size: 140px; font-weight: 700; text-anchor: middle; white-space: pre;" transform="matrix(1, 0, 0, 1, 66.595062, 36.519871)"><tspan x="165.951" y="129.431">BF</tspan><tspan x="165.951" dy="1em">​</tspan><tspan>1942</tspan></text>
</svg>